<?xml version="1.0" standalone="no"?>
<!DOCTYPE svg PUBLIC "-//W3C//DTD SVG 20010904//EN"
 "http://www.w3.org/TR/2001/REC-SVG-20010904/DTD/svg10.dtd">
<svg version="1.0" xmlns="http://www.w3.org/2000/svg"
 width="1200.000000pt" height="1200.000000pt" viewBox="0 0 1200.000000 1200.000000"
 preserveAspectRatio="xMidYMid meet">

<g transform="translate(0.000000,1200.000000) scale(0.100000,-0.100000)"
fill="#000000" stroke="none">
<path d="M6605 6311 c-78 -35 -121 -113 -113 -203 7 -64 38 -97 130 -133 89
-35 108 -53 108 -105 0 -55 -22 -94 -64 -114 -54 -25 -97 -20 -154 18 l-51 34
-22 -25 c-30 -31 -20 -49 51 -85 85 -44 179 -34 246 24 58 51 79 105 75 200
-2 43 -53 93 -122 118 -88 33 -119 62 -119 111 0 91 108 140 190 85 48 -31 51
-32 72 -2 16 22 16 24 -5 44 -55 52 -150 66 -222 33z"/>
<path d="M8113 6311 c-140 -48 -225 -180 -226 -351 0 -68 4 -96 23 -138 69
-158 259 -200 417 -90 166 113 194 433 48 544 -73 55 -167 68 -262 35z m178
-74 c64 -34 94 -97 93 -197 0 -44 -8 -97 -19 -129 -52 -158 -232 -224 -337
-124 -91 87 -68 336 38 421 70 56 153 67 225 29z"/>
<path d="M7156 6304 c-3 -9 -6 -24 -6 -35 0 -17 8 -19 95 -19 l95 0 -5 -27
c-6 -34 -65 -519 -65 -533 0 -5 18 -10 40 -10 36 0 39 2 45 33 5 30 65 521 65
532 0 3 43 5 95 5 87 0 95 2 95 19 0 11 3 26 6 35 5 14 -18 16 -224 16 -200 0
-231 -2 -236 -16z"/>
<path d="M8870 6313 c0 -10 -69 -582 -74 -610 -3 -21 1 -23 39 -23 l42 0 12
103 c21 178 17 168 65 165 l41 -3 70 -130 70 -130 48 -3 49 -3 -58 108 c-32
59 -68 124 -80 144 l-23 37 29 6 c16 3 49 25 73 48 104 101 77 252 -51 288
-42 11 -252 14 -252 3z m256 -86 c18 -21 24 -40 24 -73 0 -94 -59 -144 -170
-144 -69 0 -66 -9 -50 121 18 144 9 132 97 127 67 -3 78 -6 99 -31z"/>
<path d="M9640 6310 c0 -11 -68 -572 -74 -607 l-3 -23 182 0 183 0 4 35 4 35
-138 0 c-160 0 -145 -15 -127 132 l12 88 112 0 113 0 4 30 5 30 -115 0 -114 0
6 28 c3 15 8 56 11 92 11 109 -3 100 155 100 l138 0 4 35 4 35 -183 0 c-115 0
-183 -4 -183 -10z"/>
</g>
</svg>
