<?xml version="1.0" standalone="no"?>
<!DOCTYPE svg PUBLIC "-//W3C//DTD SVG 20010904//EN"
 "http://www.w3.org/TR/2001/REC-SVG-20010904/DTD/svg10.dtd">
<svg version="1.0" xmlns="http://www.w3.org/2000/svg"
 width="500.000000pt" height="500.000000pt" viewBox="0 0 500.000000 500.000000"
 preserveAspectRatio="xMidYMid meet">

<g transform="translate(0.000000,500.000000) scale(0.100000,-0.100000)"
fill="#000000" stroke="none">
<path d="M2473 3000 c-27 -11 -70 -69 -124 -167 -40 -71 -52 -83 -64 -63 -3 6
-24 10 -46 10 l-39 0 25 40 c30 48 30 47 4 60 -27 15 -58 -5 -99 -65 -31 -45
-31 -45 -91 -45 -33 0 -72 -6 -87 -14 -30 -16 -60 -61 -48 -73 4 -5 36 -7 71
-6 l63 3 -74 -127 c-76 -131 -113 -212 -121 -273 -10 -70 70 -126 140 -97 21
9 40 11 48 6 29 -18 48 -6 118 76 90 106 231 255 241 255 4 0 -14 -42 -41 -92
-63 -124 -76 -168 -59 -207 31 -76 174 -50 245 43 26 34 33 80 14 92 -6 3 -27
-9 -47 -28 -55 -51 -75 -65 -99 -72 -40 -12 -28 39 42 183 36 74 65 144 63
155 -4 30 -48 42 -89 25 -19 -7 -69 -47 -111 -88 -43 -40 -78 -70 -78 -66 0
15 112 208 207 359 52 82 93 156 91 165 -4 19 -25 23 -55 11z m-297 -482 c-83
-161 -100 -188 -143 -220 -30 -24 -59 -38 -77 -38 -27 0 -28 1 -23 38 7 42 63
155 145 292 56 94 57 95 102 101 100 13 100 28 -4 -173z"/>
<path d="M762 2960 c-214 -30 -403 -147 -376 -233 17 -57 63 -72 129 -40 41
20 46 43 9 43 -41 0 -26 31 34 66 91 55 213 89 317 89 105 0 156 -19 175 -66
17 -41 0 -78 -62 -134 -69 -62 -148 -98 -225 -103 -35 -3 -63 -1 -63 2 0 8 34
63 112 180 58 87 66 116 31 116 -60 -1 -80 -24 -290 -340 -131 -197 -193 -301
-193 -322 0 -21 25 -30 64 -22 27 5 40 19 86 92 29 48 76 122 103 164 l49 77
28 -21 c71 -52 277 12 390 122 54 53 100 137 100 184 0 40 -71 108 -136 130
-59 20 -195 28 -282 16z"/>
<path d="M3345 2963 c-199 -44 -389 -164 -415 -261 -25 -94 40 -150 231 -197
111 -28 169 -55 169 -79 0 -39 -124 -107 -242 -132 -107 -23 -228 -3 -228 37
0 17 -3 18 -22 8 -31 -16 -38 -28 -38 -66 0 -69 82 -101 236 -90 233 17 437
158 393 274 -25 67 -88 105 -254 152 -113 33 -150 55 -140 84 18 44 188 145
292 172 83 22 95 20 87 -10 l-6 -26 68 7 c90 9 132 26 140 58 8 32 -1 45 -42
62 -32 13 -181 18 -229 7z"/>
<path d="M3818 2871 c-13 -11 -37 -38 -52 -60 -28 -40 -30 -41 -90 -41 -68 0
-119 -24 -131 -60 -10 -31 -1 -35 66 -32 32 1 59 -1 59 -4 0 -3 -22 -43 -49
-88 -71 -117 -129 -241 -137 -292 -15 -105 89 -153 186 -84 l30 22 31 -26 c40
-34 72 -33 147 5 114 56 252 235 252 326 0 44 -14 63 -46 63 -12 0 -27 7 -34
15 -58 70 -284 -103 -335 -255 -18 -53 -74 -100 -120 -100 -21 0 -25 5 -25 28
0 31 60 155 148 303 l57 97 70 6 c91 9 105 14 105 35 0 27 -31 49 -73 53 l-37
3 26 39 c26 37 26 40 9 53 -24 17 -28 17 -57 -6z m203 -332 c21 -21 21 -22 3
-62 -51 -113 -190 -239 -233 -212 -29 17 10 118 74 192 28 33 118 103 132 103
2 0 12 -9 24 -21z"/>
<path d="M1632 2615 c-12 -9 -60 -82 -108 -162 -90 -152 -124 -192 -161 -193
-18 0 -23 6 -23 25 0 35 45 150 86 219 19 32 34 66 32 75 -4 19 -55 28 -71 12
-7 -7 -19 -5 -40 5 -57 30 -160 -10 -250 -99 -71 -69 -110 -145 -111 -216 0
-46 3 -56 27 -77 51 -44 112 -28 199 53 l48 46 0 -35 c0 -21 9 -46 22 -63 20
-25 25 -27 72 -20 28 3 63 7 78 7 23 1 41 17 97 87 75 94 239 257 249 247 3
-4 0 -12 -6 -18 -16 -16 -15 -73 2 -87 22 -18 39 -4 82 67 53 86 56 95 38 121
-29 40 -103 20 -177 -48 -24 -23 -47 -41 -50 -41 -3 0 6 20 19 45 14 24 23 49
19 55 -9 15 -47 12 -73 -5z m-289 -87 c-5 -7 -31 -41 -57 -76 -52 -68 -178
-182 -201 -182 -65 0 92 214 187 255 43 18 84 20 71 3z"/>
<path d="M4297 2619 c-20 -12 -237 -373 -237 -395 0 -11 36 -34 54 -34 2 0 38
42 79 93 79 98 229 247 247 247 7 0 4 -10 -4 -22 -30 -42 -12 -107 25 -93 15
6 21 14 76 104 37 62 39 73 17 95 -34 34 -110 7 -191 -67 l-46 -42 27 50 c14
27 26 56 26 62 0 16 -48 17 -73 2z"/>
<path d="M4763 2620 c-59 -14 -142 -61 -173 -98 -31 -38 -39 -86 -20 -122 8
-15 4 -22 -26 -39 -20 -12 -41 -36 -50 -56 -13 -31 -13 -39 1 -65 24 -46 59
-63 128 -64 50 -1 75 6 127 31 104 50 148 101 121 142 -8 12 -19 7 -63 -26
-73 -56 -110 -73 -157 -73 -54 0 -71 8 -71 34 0 25 31 51 106 89 66 33 78 48
60 72 -12 17 -17 17 -60 5 -78 -22 -73 4 13 59 53 34 71 38 71 16 0 -26 49
-17 81 14 64 64 18 106 -88 81z"/>
</g>
</svg>
